<?xml version="1.0" standalone="no"?>
<!DOCTYPE svg PUBLIC "-//W3C//DTD SVG 20010904//EN"
 "http://www.w3.org/TR/2001/REC-SVG-20010904/DTD/svg10.dtd">
<svg version="1.0" xmlns="http://www.w3.org/2000/svg"
 width="700.000000pt" height="700.000000pt" viewBox="0 0 700.000000 700.000000"
 preserveAspectRatio="xMidYMid meet">
<metadata>
Created by potrace 1.11, written by Peter Selinger 2001-2013
</metadata>
<g transform="translate(0.000000,700.000000) scale(0.100000,-0.100000)"
fill="#000000" stroke="none">
<path d="M3140 6850 c-803 -100 -1638 -532 -2172 -1124 -675 -749 -938 -1712
-778 -2851 63 -450 316 -1016 640 -1435 97 -125 355 -381 505 -502 531 -425
1109 -677 1780 -775 148 -22 574 -24 735 -5 450 55 802 160 1160 349 779 409
1347 1037 1635 1808 419 1120 211 2400 -542 3340 -105 131 -323 353 -448 456
-204 167 -410 301 -640 414 -133 65 -285 129 -291 122 -2 -2 40 -33 94 -70
214 -145 494 -387 663 -572 471 -517 736 -1065 826 -1706 26 -189 23 -567 -6
-759 -80 -527 -287 -1010 -601 -1405 -92 -116 -299 -324 -415 -418 -726 -587
-1643 -708 -2430 -322 -240 117 -419 248 -606 443 -475 493 -634 1147 -429
1764 181 545 638 944 1188 1039 93 15 162 19 375 19 350 0 498 18 692 82 299
99 529 303 625 551 53 136 64 198 64 357 0 115 -5 163 -22 233 -74 300 -252
551 -516 728 -109 73 -171 105 -297 152 -160 60 -314 87 -529 92 -102 2 -219
0 -260 -5z"/>
<path d="M4277 6731 c352 -209 662 -546 843 -916 113 -231 166 -429 177 -655
9 -220 -24 -394 -112 -578 -68 -143 -137 -234 -290 -387 -233 -233 -305 -370
-305 -583 0 -234 139 -430 367 -519 60 -24 82 -27 188 -27 99 0 131 3 182 22
286 102 510 417 605 852 20 93 23 131 22 340 0 216 -2 246 -28 368 -72 353
-228 712 -461 1062 -331 497 -808 920 -1179 1046 -100 34 -101 30 -9 -25z"/>
<path d="M5062 5430 c-17 -107 -60 -237 -115 -346 -208 -412 -613 -662 -1174
-724 -50 -5 -210 -10 -355 -9 -291 1 -374 -9 -530 -61 -364 -122 -654 -421
-777 -800 -65 -199 -84 -460 -47 -660 100 -554 560 -1052 1151 -1249 424 -141
878 -129 1291 35 551 218 1012 670 1279 1254 85 187 176 494 200 675 7 49 6
48 -45 -55 -135 -273 -305 -447 -523 -536 -198 -80 -415 -68 -612 34 -86 45
-237 190 -284 274 -58 104 -83 191 -88 316 -12 266 77 455 336 711 197 194
284 334 343 549 18 65 22 106 22 257 1 179 -12 277 -48 381 -11 34 -12 34 -24
-46z"/>
</g>
</svg>
